<?xml version="1.0" encoding="UTF-8"?>
<svg version="1.1" viewBox="0 0 1300 1291" width="1300" height="1291" xmlns="http://www.w3.org/2000/svg">
<path transform="translate(0)" d="m0 0h1300v1291h-1300z" fill="#FCFDFC"/>
<path transform="translate(558,177)" d="m0 0 7 2 3 8 2 5 4 3h7v-2h4v-2h2l1-3 9-1 6 4-1 9-1 2v6l4 5h7l6-2h5l4 5 2 5-1 5-9 9v3l4 1h12l2-2h147l2 1v2l6-1 3-15 6-9 7-5 8-3h23l6 3v2h4l5 6 3 3 4 11 1 8 4-1h225l4 2 2 4-4 3-1 5h5v-3l3 1 1 3v12l-2 22-4 28-4 36-4 30-2 16-1 1h-27l-54 1-7 54-8 59-7 56-1 7 5 5 3 2h51l19-1 3 1-2 19-11 86-3 23-4 6-4 3h-70l-5-1 4-34 11-86-3-5h-98l-1 1-6 44-5 39-5 38-1 3-13 2-34 1v70l-3 10-8 11-11 7-19 8-24 10-27 11 1 4 9 14 4 8 5 15 2 11v19l-3 17-6 18-8 16-6 10-8 11-11 13h-2v2l6 2 11 9 14 12 20 20 10 13 1 3v8l-4 5-5 2h-11l-18-3-21-7-19-10-13-9-5-4-4-7v-9l3-10 4-5-8-10-4 1-3 1-11-9-14-12-2 4-6 24-2 5h-5l-1 18 2 4v21l-3 29-4 17-5 12-4 3-9 1-6-3-6-8-9-15-7-18-4-20v-4l-8 2-40 5-42 3h-64l-32-2-12-2-22-3-24-5-16-4-9-3-24-9-21-11-10-7-11-9-3-2v-2l-4-2-1-3h-2v-3h-2l-8-12-5-10-3-7-4-14-1-1-3-18-2-5-1-20h-2v-50h2l1-22 1-2 1-18h2l1-13 2-4 3-19 3 2 5 1 1-2v2l5-1-1-20-3-2-6-1 3-13 10-29-2-5-13-21-3-10 2-9 4-5 8-4 20-4 8-1 8-16 10-13 7-7 13-9 13-6 13-3 8-1 2-7-2-4 16-124 2-6h2v-5l7-3h45l2-4 2-20 2-14 1-1 1-17 2-6 1-14 2-8 1-14 1-3 1-14 2-7 2-16 1-16 2-10v-15l-4-4-9-1h-32v-2h-2l-4-8v-7l2-11 4-4 1-3 3-1 94-2 5-2h10v-2l5-2 2-4 9-8h2l2-4 5-4h15l7-3 1-1v-10l-2-2 1-7 7-3h6l3 2v3h2l4 4h8l4-4 2-9 4-4z" fill="#98B8FD"/>
<path transform="translate(1062,584)" d="m0 0h35l4 11 5 16 7 28 6 27 5 34 3 36v60l-4 38-5 26-7 28-7 20-5 12-4 9-8 16-8 14-7 11-9 14h-2l-2 5-10 11-7 9-23 23-8 7-9 7-16 12-14 9-16 10-16 8-13 6-11 5-34 12-26 7-24 5-29 4-39 3h-36l-34-2-34-4-36-6-11-3-8-1-1-4 4-21 2-22v-21l-2-4v-8l2-10h5l2-10 6-23h3l14 12 10 8 4-2 4 1 8 10-5 7-2 8v9l3 5v2l4 2 8 6 13 8 17 8 16 5 18 3h11l6-3 2-3v-8l-4-7-11-13-19-19-22-18-5-2v-2l5-5 9-10 9-14 8-14 6-15 5-19 1-8v-19l-4-18-5-12-7-12-5-7 1-4 34-14 21-9 15-6 11-7 7-10 3-10v-71l35-1 9-1h4l3-27 2-14 5-39 6-44 2-2h98l4 6-13 103-2 15-1 2h75l5-4 2-4 12-95 4-29z" fill="#C9DBFC"/>
<path transform="translate(433,606)" d="m0 0 9 1 6 4 3 5 1 4v24l-4 18-6 15-9 16-12 17-10 11-7 8-5 6-1 7 4 8 10 13 11 12 10 7 13 6 17 5 2 2v7l12-1h38l19 2 26 5 27 9 16 8 9 7 9 13 4 11 2 13 2 29v12l-5-4-7-8-3-3v-2l-3-1-7-8-10-10-8-7-11-10-12-9-14-8-17-7-23-7-32-7v4l9 1 23 5 20 6 19 8 11 6 11 8 11 10 2 1v2l4 2 29 29 7 8 12 14 13 17 11 14 9 12 10 14 3 4-1 6 8 8v2l3 1v2h2l3 3 6 3 11 9 14 12 20 20 10 13 1 3v8l-4 5-5 2h-11l-18-3-21-7-19-10-13-9-5-4-4-7v-9l3-10 4-5-8-10-4 1-3 1-11-9-14-12-2 4-6 24-2 5h-5l-1 18 2 4v21l-3 29-4 17-5 12-4 3-9 1-6-3-6-8-9-15-7-18-4-20v-4l-8 2-40 5-42 3h-64l-32-2-12-2-22-3-24-5-16-4-9-3-24-9-21-11-10-7-11-9-3-2v-2l-4-2-1-3h-2v-3h-2l-8-12-5-10-3-7-4-14-1-1-3-18-2-5-1-20h-2v-50h2l1-22 1-2 1-18h2l1-13 2-4 3-19 3 2 5 1 1-2v2l5-1-1-20-3-2-6-1 3-13 10-29-2-5-13-21-3-10 2-9 4-5 8-4 20-4 16-2h14l3 1 38-1 3 1-3-5-8-8-7-6-1-2v-9l4-4 10-2h3l-1-9 5-2 16-2 5-1 2-4 6-1 8 4 4 5 1 7-4 4-6 2 5 7 6 5 4-1 3-1-2 4-3 2-4-1-12-11-2-3-6 1-9 8 2 4 11 12 2 3 6-1 9-5 2 4 6 2 2 2v5l-7 7-5 3h-2l2 5 10-1 3-2 2-12 5-8 4-2h3l-2-6v-9l1-5-9 4h-2v-4l14-6 9-6 29-12 15-5z" fill="#547AF4"/>
<path transform="translate(433,606)" d="m0 0 9 1 6 4 3 5 1 4v24l-4 18-6 15-9 16-12 17-10 11-7 8-5 6-1 7 4 8 10 13 11 12 10 7 13 6 17 5 2 2v7l12-1h38l19 2 26 5 27 9 16 8 9 7 9 13 4 11 2 13 2 29v12l-5-4-7-8-3-3v-2l-3-1-7-8-10-10-8-7-11-10-12-9-14-8-17-7-23-7-32-7v4l9 1 23 5 20 6 19 8 11 6 11 8 11 10 2 1v2l4 2 29 29 7 8 12 14 13 17 11 14 9 12 10 14 3 4-1 6 8 8v2l3 1v2h2l3 3 6 3 11 9 14 12 20 20 10 13 1 3v8l-4 5-5 2h-11l-18-3-21-7-19-10-13-9-5-4-4-7v-9l3-10 4-5-8-10-4 1-3 1-11-9-14-12-2 4-6 24-2 5h-5l-1 18 2 4v21l-3 29-4 17-5 12-4 3-9 1-6-3-6-8-9-15-7-18-4-20v-26l2-5 6-5 10-4h8l2 1 2-8-4-1-8-38-5-33v-4l-4-2-19-14-13-9-16-8-23-9-23-7-24-5-19-2h-35l-13-1-6 4-12 4-8-1-7-8-9-17-8-19-9-21-9-14-11-13-7-7-13-10-18-10-12-7-10-8-10-9-12-13-9-12-12-19-5-10-1-8 3-8 6-5 13-4 28-4h14l3 1 38-1 3 1-3-5-8-8-7-6-1-2v-9l4-4 10-2h3l-1-9 5-2 16-2 5-1 2-4 6-1 8 4 4 5 1 7-4 4-6 2 5 7 6 5 4-1 3-1-2 4-3 2-4-1-12-11-2-3-6 1-9 8 2 4 11 12 2 3 6-1 9-5 2 4 6 2 2 2v5l-7 7-5 3h-2l2 5 10-1 3-2 2-12 5-8 4-2h3l-2-6v-9l1-5-9 4h-2v-4l14-6 9-6 29-12 15-5z" fill="#020303"/>
<path transform="translate(571,416)" d="m0 0 7 6 10 9 8 7 10 9 14 13 8 7 10 9 13 12 8 7 11 10 8 7 15 14 7 3h7l11-4 22-15 16-11 23-16 12-8 16-11 20-14 12-8 16-11 12-8 5 1 1 1v8l-26 196-2 5-219 1-83-1-1-2v-8l24-175 4-29z" fill="#FBFCFC"/>
<path transform="translate(599,351)" d="m0 0h266l2 1-1 13-8 58-1 4-16 11-22 15-23 16-24 16-11 8-25 17-16 11-9 5-10 1-6-3-12-11-8-7-12-11-8-7-13-12-8-7-12-11-10-9-8-7-10-9-6-7 9-68z" fill="#C8DBFC"/>
<path transform="translate(432,609)" d="m0 0 9 1 6 5 2 6v23l-4 17-6 15-8 15-12 16-9 11-11 12-3 4-1 8 3 7 10 14 11 12 8 7 16 8 18 6 1 1v7l-5 10-11 11-11 7-19 9-32 16-14 8-9 8-6 10-1 2-4-2-9-16-11-25-7-16-9-16-11-13-11-11-15-11-24-13-13-10-10-9-7-8-12-15-12-19-5-9-1-8 3-6 6-5 16-4 22-3h13l8 4 6 7 3 7-1 7-6 3-18 4 1 3 9 6 11 4h15l22-12 2 1-8 6-1 3 17 2h10l14-3 10-7 4-7v-2l-8-3-1-3 25-6 11-6 9-7 10-10 2-5-22 4h-6l-2-2-1-4v-9l4-8 5-4 20-9 25-9z" fill="#F9FBFC"/>
<path transform="translate(816,828)" d="m0 0 18 7 19 10 11 6 16 10v2l5 2 12 8 13 11 4 4v36h8v-3l4 2 3 1 7-2v2l7-1v-6l3 2v5h5l4 4v2h2l4 6v2h2l3 4v2h2l7 11 8 11 12 20 2 4 2-16 4-21 6-16 7-14 8-12 5-7 3-3h2l2-4 3-1 2-4 3-1v-2l4-1 1-3 17-11 7-3 2 9 1 10v22l-3 21-3 14-7 21-10 19-9 14-5 7h-2v2h-2l-2 4-5 5-4 5-8 7-4 3h-2v2h-2v2l-22 16-10 7-20 12-8 4-4-1-12-11-8-7-24-24v-2h-2v-2h-2l-3-5-5-5v-2h-2l-12-16-7-10-12-20-7-12-8-18-1-8 1-2h2l2-4 4-4v-4l-8-4-10-4-4-5-6-24-4-24-1-14v-16z" fill="#99B9FE"/>
<path transform="translate(415,719)" d="m0 0h9l1 1 367 1 3 8v37l1 6v10l-4 11h-2l-1 5-6 8-9 6-6 2-2 4-7 2-7 1v2l-7 3-7 2-8 3-8 2-11 5h-7v-2l-5-2v-2l-5-2-7-5v-2l-7-2-10-7-10-5-7-4-11-4-7-4-7-3-15-6-26-6-19-2h-19l-29 3-14 2-1 4-5-1-1 1h-5l-2-2-23-2-15-5-11-6-11-9-5-4v-2h-2l-7-8-11-13-4-6 1-4 7-8z" fill="#FCFDFD"/>
<path transform="translate(402,730)" d="m0 0 4 5 9 11 9 10 1 3h2v2l4 2 9 8 14 8 15 5 23 2 2 2 5 1 1-2 5 1 1-4 30-4 13-1h19l24 3 24 6 14 6 14 7 9 3 7 4 15 8 5 4 7 3 4 4 8 5 3 3 2 1v2l4 2 9 9 9 13 6 10 6 18 2 11v19l-3 17-6 18-8 16-6 10-8 11-11 13-4 1-1-3h-2l-7-8-5-5 1-6-12-16-7-10-11-14-13-17-11-13-10-11-7-8-24-24-2-1v-2l-4-2-11-10-16-10-15-7-21-7-25-6-14-3v-4l14 2 29 7 20 7 17 8 14 10 14 12 7 7 8 7 8 8v2l3 1 7 8 10 11v-11l-2-29-2-13-5-13-8-11-13-9-19-8-19-6-26-5-19-2h-50l-1-7-8-3-15-5-13-7-13-12-8-10-9-13-1-7 3-5z" fill="#547AF4"/>
<path transform="translate(406,484)" d="m0 0h115l5 4 1 2-1 14-8 62-6 47-6 46-2 7-2 1h-55l1-9 3-14v-24l-3-7-4-4-7-2-11 1-16 5-20 8h-4l1-13 15-117 2-5z" fill="#F8FAFC"/>
<path transform="translate(558,177)" d="m0 0 7 2 3 8 2 5 4 3h7v-2h4v-2h2l1-3 9-1 6 4-1 9-1 2v6l4 5h7l6-2h5l4 5 2 5-1 5-9 9 2 9 7 3 9 3v14l-5 3-10 2-2 2-1 9 8 8 1 6-5 9-5 1-9-3h-5l-5 5 1 8 1 10-11 6-4-1-8-9-10 1-3 7-2 8-2 1h-13l-2-1-3-14-7-3-5 1-8 8-7-1-8-6 2-9 1-8-5-5-8 1-3 1h-7l-6-10 1-5 3-3h2v-2l4-3-1-10-7-3-9-3v-14l5-3 10-2 3-6v-6l-8-7-1-4 6-7 2-1h15l7-3 1-1v-10l-2-2 1-7 7-3h6l3 2v3h2l4 4h8l4-4 2-9 4-4z" fill="#547AF4"/>
<path transform="translate(876,593)" d="m0 0h98l4 6-13 103-2 15-2 11-2 16-2 1h-99l-2-1 1-16 4-36 2-14 5-39 6-44z" fill="#F8FBFC"/>
<path transform="translate(383,413)" d="m0 0h1v8l-1 1-3 21-1 13-3 4-7 1h-38l-6 2-1 5-2 1-5 36-12 94 2 4-3 7-18 3-12 5-12 7-13 12-9 13-8 15-25 4-9 4-5 5-2 9 3 10 11 18 4 6-3 10-9 28-2 6h6l4 3 1 21h-12l-2-2-3 18-2 2 1-13 1-2 2-13 1-8-4-8v-3h-2l-1-8-1-1-1-13h-2l-1-14-2-7v-40l2-6 1-12 4-11 2-8 5-12 5-9 4-7h2l2-5 6-8 8-10 9-12 2-3h2l2-4 8-10 6-8 7-6 5-6 6-11 7-11 5-8h2l2-5 5-7 5-9h2l2-6 10-19 5-3h13l3-2 47-1 3-5 2-20 1-2 1-11z" fill="#C8DBFC"/>
<path transform="translate(970,748)" d="m0 0 4 2v2h2l12 17 8 13 8 14 9 19 3 7-1 7-8 13v2l16 1 3 8 5 21 2 16v10l-2 4h-2l-2 5-7 9-6 10-8 19-4 15-2 12-2 18-3-3-6-11-9-15-12-17v-2h-2l-3-4v-2h-2l-3-7-3-11v-4h-2l1 7h-3-2l-3-5v-28h3l-2-11-1-13v-34l1-8 2-2 12-2-1-6-9-12 1-9 5-16 5-13z" fill="#FCFDFD"/>
<path transform="translate(415,719)" d="m0 0h9l1 1 197 1 2 1v63l-1 6-10-3-26-6-19-2h-19l-29 3-14 2-1 4-5-1-1 1h-5l-2-2-23-2-15-5-11-6-11-9-5-4v-2h-2l-7-8-11-13-4-6 1-4 7-8z" fill="#C9DBFD"/>
<path transform="translate(462,328)" d="m0 0 4 1 5 9h9l5-9 5-1 8 3 1 13 5 3 6-2 4-3 5 1 6 6-1 5-4 6 1 5 2 3 13 1 3 7v5l-10 6-1 9 6 2 5 3-1 10-2 3-13 1-3 5 2 5 3 5-1 5-5 5-7-1-5-3-5 1-3 2v12l-2 2-10 2-4-5-2-6h-10l-2 6-3 5-8-1-4-1-1-5v-9l-5-3-5 1-6 4-4-1-6-6 1-5 3-5v-5l-2-5h-14l-2-6v-6l8-5 2-1v-8l-10-6-1-3 3-10 14-1 2-4-1-5-4-8 6-7 3-2 9 5 5-1 3-2 1-13z" fill="#547AF4"/>
<path transform="translate(936,272)" d="m0 0 3 1 5 9 8 1 1-5 3-5 4-1 9 3 1 13 4 2 4-1 5-3h5l5 5 1 5-4 7 1 5 1 2 13 1 3 9-1 4-8 4h-2v8l5 2 6 4-2 11-2 1h-12l-2 7 5 8-1 4-6 6-5-1-5-3-6 1-2 1v12l-7 3h-5l-6-10-9 1-4 9-10-1-3-3v-11l-4-2-5 1-5 3h-5l-6-7 1-5 4-6-2-7h-14l-2-7v-5l10-6v-8l-6-2-4-3 1-9 3-3h12l2-7-5-8 1-5 6-5 4 1 6 3 5-1 2-1 1-13z" fill="#F8FBFD"/>
<path transform="translate(720,300)" d="m0 0h11l8 4 16 13 13 10 18 14 7 5v2h74l3 4-1 14-4 28v8l12 10 1 2-1 13-26 200-2 7-5 4h-140v-3l137-1 4-1 3-19 24-181v-8l-5-1-12 8-16 11-22 15-20 14-28 19-23 16-30 20-9 3h-7l-8-4-8-8-8-7-12-11-8-7-13-12-8-7-13-12-8-7-10-9-14-13-8-7-10-9-3 17-26 190v10l53 1v3h-51l-5-3-1-2v-9l27-198 2-13 9-8 12-9 5-39 2-7 2-2 57-1 18-13 17-13 11-8 15-11zm-121 51-2 7-9 68 6 7 7 7 8 7 10 9 8 7 13 12 8 7 10 9 13 12 8 7 12 11 7 5 9 1 8-3 11-7 20-14 12-8 23-16 25-17 23-16 12-8 16-11 4-25 6-44v-6l-2-1z" fill="#020303"/>
<path transform="translate(548,216)" d="m0 0h16l11 4 8 6 7 8 4 8 2 8v11l-3 11-4 8h-2l-2 4-6 5-6 4-10 3h-14l-9-3-8-4-7-7v-2h-2l-5-10-2-6v-16l6-15 6-7 11-7z" fill="#99B9FE"/>
<path transform="translate(602,190)" d="m0 0h2l2 2 22 2 4 1 16 1 3 2 13 1 5 2 7 1v2h9l5 2 10 1 4 2 8 1v2l8 1 13 4 7 1 3 2 14 4 6 3 11 5 9 4v1l-146 1-2 2h-14l-3-2 1-4 9-9-1-6-4-7-8 1-3 1h-7l-5-6v-6l2-6z" fill="#C9DBFD"/>
<path transform="translate(874,239)" d="m0 0h217l4 2 2 4-4 3-1 5h5v-3l3 1 1 3v12l-2 22-4 28-4 36-4 30-2 16-1 1h-21v-6h-2l2-20 14-107v-9l-4-9-6-5-2-1-197-1v-1z" fill="#557BF4"/>
<path transform="translate(816,207)" d="m0 0h23l6 3v2h4l5 6 3 3 4 11 1 4v8l-3 10-6 9-8 7-13 5h-10l-12-3-4-2-1-3-1-19-3-2-7 1-3 3-1-2v-9h2l3-15 6-9 7-5z" fill="#547AF4"/>
<path transform="translate(576,1024)" d="m0 0 5 2 3 16 7-6 9 1 6 3 2 4v20l-1 3-13-2-4-1v3l9 1 8 2v8l-2 3-16-4v2l12 3 5 2-2 14-5 17-3 6-4 2-9-1-5-5-8-14-6-13-6-21-1-8v-24l2-5 8-5z" fill="#EFF4FC"/>
<path transform="translate(693,1009)" d="m0 0 7 2 14 12 3 2-2 4-8 9-1 3 8-7 4-5 4 1 4 4-10 12-1 2 5-3 7-8h3l13 13 11 14 1 2v7l-4 4-3 1h-11l-20-4-15-5-16-8-11-7-10-8-4-5v-9l3-9 4-3h11l4-4 4-5z" fill="#EFF4FC"/>
<path transform="translate(1047,584)" d="m0 0h13l1 3-9 69-7 55-4 6-4 3h-67l1-3 41-1 5-3 2-3 5-37 10-77 1-9 3-2z" fill="#547AF4"/>
<path transform="translate(721,303)" d="m0 0h10l9 6 14 11 13 10 18 14 3 2v2h-127l5-5 13-10 19-14 16-12z" fill="#F8FBFC"/>
<path transform="translate(322,300)" d="m0 0h17l11 5v2l5 2 7 7 5 10 1 5v15l-4 11-6 9-9 7-9 4-5 1h-12l-12-4-5-5-3-1v-2l-4-2-4-6-2-4-2-8-1-2v-12l4-7 1 2-1 4v16l2 6 11-3 4-6-1-17 3-7 4-5 6-3 8 1 2-1h7l6 4 6 9 1 3v21l5 5 3 1 4-9-1-16-4-10-9-10-12-6-5-1h-10l-10 3-3-1 5-3z" fill="#020303"/>
<path transform="translate(468,360)" d="m0 0h16l12 6v2l3 1v2h2l5 10 2 11-2 10-4 8-3 4h-2l-1 3-10 5-3 1h-15l-12-6-8-9-4-11v-13l6-12 5-5 8-5z" fill="#99B9FE"/>
<path transform="translate(425,720)" d="m0 0h420v1l-34 1v70l-3 10-8 11-11 7-19 8-24 10-27 11-2 2-7-8-4-5 5-1 13-6 8-2 7-3 7-2 6-1v-2l7-2 8-3 4-4 9-5 5-5 4-6 1-3h2l1-5 2-7v-10l-1-5v-37l-2-4v-4h-367z" fill="#98B8FD"/>
<path transform="translate(646,375)" d="m0 0 8 1v5h162l3 2v13l-36 1h-124l-9 1-5 1-3-2-15-1-1-4v-8l2-3 14-1 2-4z" fill="#FCFDFD"/>
<path transform="translate(912,614)" d="m0 0h14l10 4 7 6 7 13v10l-2 8-6 9-9 7-5 2-11 1-13-4-8-7-4-6-2-6v-15l4-9 6-7z" fill="#F0F5FC"/>
<path transform="translate(942,303)" d="m0 0h12l8 3 6 4v2h2l6 10 1 4v14l-3 7-3 5-9 7-8 3h-12l-10-4-7-6-5-8-2-7v-9l3-9 8-10 9-5z" fill="#99B9FE"/>
<path transform="translate(1056,427)" d="m0 0h8l6 3 6 7 5 11 2 8v7l-3 5-4 2h-10v8l15 4 5-1 2-3h3l-1 4-8 8-8 4v-4l5-3 1-2-14-2-3 5-2 1h-7l-5-5v-2l-15 1 4 4 10 5 4 1h14l-1 4h-14l-11-4-8-6-7-8-3-6-1-7v-12l1-8h2l-1 15 3 12 3 5v2l20-2v-8l-9-2-5-4-1-2v-8l5-12 6-8 8-6z" fill="#020303"/>
<path transform="translate(448,510)" d="m0 0h16l11 4 8 6-1 2-5-2-6-4-7-2h-16l-9 3-9 7-6 9-3 9v14l4 11 4 5v2l10-2h8v-12h-2l-3-7-2-12v-9l5-5 2-1h20l5 5 1 7-3 18-4 5v10l17 3 7-14 2-14 3-1v11l-4 12-7 9-9 7-12 4h-14l-12-4-10-8-7-10-3-10v-15l4-11 6-8 8-7 9-4z" fill="#020303"/>
<path transform="translate(296,610)" d="m0 0h16l9 3-2 2-7 2-16 2v9l-13 3-3 1v11l5 6 8 7 5 5v3l-41 1-3-1h-21l1-5 8-14 9-11 11-10 14-8 10-4z" fill="#547AF4"/>
<path transform="translate(744,415)" d="m0 0 6 1 1 12-2 3h-125l-3-1v-14z" fill="#FDFEFD"/>
<path transform="translate(624,987)" d="m0 0 8 6 15 13 4 2 3-2 4 1 8 10-5 7-2 5-9 4-22 8-14 4h-3l-3-6v-8l2-10h5l2-10 6-23z" fill="#547AF4"/>
<path transform="translate(552,1058)" d="m0 0h2l5 24 5 13-1 4-16-5-14-5-5-1v-2l-8-1-16-7-7-4v-2l-17-4 2-2 34-3z" fill="#C7DAFC"/>
<path transform="translate(425,717)" d="m0 0h423v3h-423z" fill="#020303"/>
<path transform="translate(548,216)" d="m0 0h16l11 4 8 6 7 8 2 3-1 3h-69l-2-1 2-6 6-7 11-7z" fill="#C8DAFD"/>
<path transform="translate(324,631)" d="m0 0 4 1 7 8 7 6 4-1 7-3 13-6 1 2-1 4v9l1 6-7 2-4 8-2 12-4 3-10 1-2-3v-3l9-6 4-4v-5l-2-2-6-2-2-3-8 5-6 1-12-14-4-4 2-4 8-7z" fill="#E9F0FC"/>
<path transform="translate(316,667)" d="m0 0 5 2 5 5v2l9 3 6 11v2l7 1-1 4-5 5-8 5-11 2h-9l-13-2 5-5 6-5-5-22v-2l5-3z" fill="#F0F5FC"/>
<path transform="translate(912,614)" d="m0 0h14l10 4 7 6 5 9v2h-3l-6-9-6-5-7-3h-14l-8 4-3 1v2h-2l-2 5-3 6-1 8 2 10 6 9 3 2 1-9 4-5 5-3h8l7 4 3 6v9l6-4 5-5 2 2-6 7-6 4-5 2-11 1-13-4-8-7-4-6-2-6v-15l4-9 6-7z" fill="#020303"/>
<path transform="translate(244,891)" d="m0 0h29l31 3 30 5 8 2 1-4 3-2h6l3 3v7l10 3 15 6 15 8 11 8 2 4h-4l-13-9-16-8-20-8v10l-5-1-1 1h-5l-2-2v-8l1-3-29-6-25-3-12-1-32-1z" fill="#BCD2FD"/>
<path transform="translate(696,634)" d="m0 0h145v1h-137v35l-2 4-3 1h-13l-1-3 1-5 8-1v-2l-5 1-3-1-2-3v-23h12z" fill="#B4C9FB"/>
<path transform="translate(298,666)" d="m0 0 4 1 3 8 4 19-4 2-4-1-5-6v-2l-6-2-9 1-8 1-4-11-6-8 3-1z" fill="#F1F5FC"/>
<path transform="translate(1049,439)" d="m0 0 21 1 1 4-1 11-4 6-3 2-5 1-1 2h6v15l-3 5h-6l-2-3v-13l2-7-5-5-1-3v-14z" fill="#E7EEFC"/>
<path transform="translate(458,533)" d="m0 0 6 1 3 4 1 3v11l-3 6-4 3-6 1 1 2h7l-1 11-3 2h-6l-3-4v-9l2-1v-2l-6-5-1-3v-11z" fill="#EDF2FC"/>
<path transform="translate(287,687)" d="m0 0 7 2 6 9-19 11h-14l-11-4-6-4 1-2 15-4 5-1 2-4z" fill="#547AF4"/>
<path transform="translate(900,888)" d="m0 0 7 1 4 5 1 30h-11l-5 1-5-5v-10l4-5 5-3h2v-5h-2l-1 4h-8l1-9 4-3z" fill="#C8DAFD"/>
<path transform="translate(331,324)" d="m0 0 4 1 5 5 1 2v15l-3 4-5 2h-5l-1 2h5v9l-2 3h-5l-2-2v-10l1-4-5-5v-12z" fill="#ECF1FC"/>
<path transform="translate(817,222)" d="m0 0 6 1 5 4 4 2v2l6 2 4 3v5l-3 3-2 4-5 3-8 3-1 1h-6l-1-1v-31z" fill="#F7FAFD"/>
<path transform="translate(1036,588)" d="m0 0h3l-7 56-8 62-2 7-5 5-3 2h-44l1-3 41-1 5-3 2-3 5-37 11-84z" fill="#020303"/>
<path transform="translate(324,631)" d="m0 0 4 1 7 8 8 7-2 8-8 5-6 1-12-14-4-4 2-4 8-7z" fill="#F0F5FC"/>
<path transform="translate(1062,240)" d="m0 0h8l5 4 4 6 2 6v11l-16 122-1 3h-3l3-26 13-100v-9l-4-9-6-5-5-2z" fill="#020303"/>
<path transform="translate(834,853)" d="m0 0 3 1 12 19 12 18 10 14 11 16 6 8v2h2l8 12 12 15 1 3h-4l-8-10-4-6-4-4-8-11v-2h-2l-7-11-9-12-20-30-9-14-3-5z" fill="#CADCFD"/>
<path transform="translate(675,990)" d="m0 0 7 6 8 9v2l-6 4-5 7-9-1-11-12v-3z" fill="#EDF2FC"/>
<path transform="translate(654,523)" d="m0 0h3l-2 6-4 4h-2l-2 4-15 15-6 5-7 8-20 20-2 3h-2l-1 3-5 5-6 5-8 10h-4l1-4 5-6h2l2-4 49-49 4-5h2l1-3h2l2-4 3-1 1-3h2l2-4z" fill="#6287F6"/>
<path transform="translate(637,237)" d="m0 0h147l1 3h-149z" fill="#020303"/>
<path transform="translate(387,656)" d="m0 0h7l-6 7-8 7-11 7-9 3h-3l1-12 4-6 5-3 11-1z" fill="#97B6FD"/>
<path transform="translate(640,638)" d="m0 0h8l1 2-1 24h-7-3-7l-3-3v-10l3-5 8-6z" fill="#C7D9FD"/>
<path transform="translate(608,638)" d="m0 0h8v26h-7-3-7l-2-2-1-10 3-6 8-6z" fill="#C7D9FD"/>
<path transform="translate(1058,901)" d="m0 0h3l-1 6-11 23-13 32-8 22-5 20-3 3-1-1 1-10 8-26 8-20 4-11 4-8 12-27z" fill="#CADCFD"/>
<path transform="translate(928,889)" d="m0 0h9l5 3 1 4v18l-8-1-1-4-3 5-1 4-5 3-2-2v-7l3-5 5-4 3-2 1-5h-4v4l-6 1-2-5 3-5z" fill="#FDFEFD"/>
<path transform="translate(321,469)" d="m0 0h3l-1 14-15 115-1 2-3-1 12-94z" fill="#020303"/>
<path transform="translate(749,525)" d="m0 0 4 2 7 6 9 11 2 4h2l9 11 10 11 9 11 8 10 5 5 9 10 1 5h-3l-6-8-5-5-7-8-13-15-11-13v-2l-4-2-5-7-4-4-14-16-3-3z" fill="#5C82F5"/>
<path transform="translate(792,721)" d="m0 0 3 4 1 2v38h6l3 3 1 4v16l-5 1-8 1v4h-2l-1 5-4 6-8 6-7 4-3-1 12-7 5-5 4-6 1-3h2l1-5 2-7v-10l-1-5v-37l-2-4z" fill="#C7D9FD"/>
<path transform="translate(915,651)" d="m0 0h7l6 5 1 2v11l-3 1h-14l-5-2v-7l3-7z" fill="#547AF4"/>
<path transform="translate(244,891)" d="m0 0h29l31 3 30 5 4 1-1 4-30-5-30-3-32-1z" fill="#BBD1FD"/>
<path transform="translate(874,720)" d="m0 0h70l1 4-1 1h-69z" fill="#99B9FE"/>
<path transform="translate(880,687)" d="m0 0h69l1 4-1 1h-69l-1-4z" fill="#99B9FE"/>
<path transform="translate(1008,534)" d="m0 0h56l1 5-1 1h-55l-3-1 1-4z" fill="#CADCFD"/>
<path transform="translate(587,1016)" d="m0 0 10 1 10 2-1 12-2 5-7-2h-7l-4 2-1-1 1-16z" fill="#EAF0FC"/>
<path transform="translate(1037,482)" d="m0 0h12l3 5 2 1h7l6-6 13 3-2 4-4 1-1 5-8 2v-3h-13l-11-4-7-5v-2z" fill="#547AF4"/>
<path transform="translate(333,431)" d="m0 0h19l1 4-1 1h-77l1-3 4-1z" fill="#C2D6FD"/>
<path transform="translate(483,220)" d="m0 0 2 4 4 2 5 5v6l-3 3h-17v-3h-17v-1h10v-2l5-2 2-4z" fill="#C8DAFD"/>
<path transform="translate(195,765)" d="m0 0h6l4 3 1 21h-12l-2-2-3 18-2 2 1-13 1-2 2-13 2-7z" fill="#96B6FD"/>
<path transform="translate(1007,552)" d="m0 0 7 1 66 1v4h-75l-1-4z" fill="#C7DAFD"/>
<path transform="translate(1013,516)" d="m0 0h32l1 3h6l3-1h7l4-1 5 1 4-2 7 1v2l3 1v1h-76l2-4z" fill="#CADCFD"/>
<path transform="translate(283,397)" d="m0 0h59l2 1h13l1 3h-76z" fill="#CADCFD"/>
<path transform="translate(307,364)" d="m0 0h13l1 4 9 1 4-4 9 1 6 2-3 3-7 3-5 1h-10l-10-3-9-5v-2z" fill="#93B3FC"/>
<path transform="translate(878,703)" d="m0 0h51l2 1-1 4h-53l-1-4z" fill="#99B9FE"/>
<path transform="translate(669,1038)" d="m0 0 9 5 14 9 16 8 18 6 6 1h12l6-1v3l-6 2h-12l-17-4-20-9-17-10-9-6-1-3z" fill="#020303"/>
<path transform="translate(496,1025)" d="m0 0h6l3 3 1 21h-12l-2-1v-9l7-6 1-3h-3v3h-5v-5z" fill="#95B5FD"/>
<path transform="translate(495,245)" d="m0 0 9 1 1 2 1 20-5 1h-2-5l-2-2v-8l7-6 1-3h-3v3h-5v-5z" fill="#95B5FD"/>
<path transform="translate(475,920)" d="m0 0h19l15 3 7 2v4l-6-1-14-3h-22l-15 4-6 3h-4v-3l13-6z" fill="#BCD2FD"/>
<path transform="translate(646,895)" d="m0 0 7 1 2 2 1 21h-12l-2-2v-7l5-5 3-5h-3v3h-5v-5z" fill="#95B5FD"/>
<path transform="translate(795,1025)" d="m0 0h6l3 2 1 3v19l-6-1-5 1-2-2v-8l5-4 2-1 1-4h-3v3h-5v-5h2z" fill="#F9FBFD"/>
<path transform="translate(927,984)" d="m0 0 4 1 5 5v2h2l9 11 6 7v2h2l9 11 10 11v3l-4-1v-2h-2v-2h-2l-14-16v-2h-2l-9-11-8-9v-2h-2l-4-6z" fill="#CADCFD"/>
<path transform="translate(440,575)" d="m0 0h8l4 4 5 1 6-3 2-2 11 1 2 2-9 5-8 2h-10l-11-3-6-4 2-2z" fill="#547AF4"/>
<path transform="translate(563,1037)" d="m0 0 3 1 2 24 4 17 6 16 9 16 2 4-3 1-8-13-6-12-5-15-3-14-1-8z" fill="#020303"/>
<path transform="translate(1096,765)" d="m0 0 7 1 2 2v19l-2 2h-7l-3-1-1-2v-6l5-5 2-1-1-4-3 3h-3v-5z" fill="#F9FBFD"/>
<path transform="translate(946,381)" d="m0 0h6l6 9-2 9h-12l-3-5 1-5 3-5-4 3 2-5z" fill="#C7DAFD"/>
<path transform="translate(456,237)" d="m0 0h17v4h-113v-1l92-2z" fill="#547AF4"/>
<path transform="translate(288,412)" d="m0 0h24l5 3-2 3h-37v-4z" fill="#CADCFD"/>
<path transform="translate(1050,421)" d="m0 0h21l8 3v3h4l7 8 5 8 3 14-1 10-1 2h-3l1-14-3-11-6-10-11-8-5-2-7-1h-9l-10 3-4 1 3-3h2v-2z" fill="#020303"/>
<path transform="translate(674,638)" d="m0 0h8l1 2-1 24h-8z" fill="#CADCFD"/>
<path transform="translate(651,638)" d="m0 0h8v26h-8l-1-25z" fill="#CADCFD"/>
<path transform="translate(619,638)" d="m0 0h8v26h-8l-1-25z" fill="#CADCFD"/>
<path transform="translate(662,638)" d="m0 0h8v26h-8z" fill="#CADCFD"/>
<path transform="translate(322,300)" d="m0 0h17l11 5v2l5 2 7 7 5 10 1 5v15h-2l-2-16-4-10-9-10-12-6-5-1h-10l-10 3-3-1 5-3z" fill="#020405"/>
<path transform="translate(1055,465)" d="m0 0 8 1v15l-3 5h-6l-2-3v-13z" fill="#E4ECFC"/>
<path transform="translate(496,765)" d="m0 0 7 1 2 2v16l-4 1h-9l1-7 4-3 2-1 1-4-3 1-1 2h-4v-5z" fill="#F8FBFD"/>
<path transform="translate(648,634)" d="m0 0h48v4h-48z" fill="#7691CE"/>
<path transform="translate(587,401)" d="m0 0 2 2-3 21-4-2-9-8 1-3 12-9z" fill="#E4ECFC"/>
<path transform="translate(917,629)" d="m0 0h6l4 4v7l-5 4-6-1-3-3-1-4 3-6z" fill="#020303"/>
<path transform="translate(786,968)" d="m0 0h5v3l-8 2-1 3v8l5 4 7-1 3-3 2-5 3 1-2 7-4 4-3 1h-7l-6-4-2-4v-8l4-6z" fill="#020303"/>
<path transform="translate(787,904)" d="m0 0 5 1 2 3v7l-3 3h-8l-3-7 2-5z" fill="#FDFEFD"/>
<path transform="translate(863,406)" d="m0 0 4 2 6 4 2 3-1 7-7-1-4 2-3-1z" fill="#DFE8FC"/>
<path transform="translate(343,905)" d="m0 0 9 2 3 2v10l-5-1-1 1h-5l-2-2v-8z" fill="#94B4FC"/>
<path transform="translate(453,562)" d="m0 0 1 2h9l-1 11-3 2h-6l-3-4v-9z" fill="#E9EFFC"/>
<path transform="translate(398,296)" d="m0 0h1v8l-1 2-1 16-3 21-1 2-1 14-1 3-1 14-2 8-1 14-2 6h-1v-7l1-2 1-14 2-8 1-14 1-2 1-13 2-8 1-14 1-2 2-22z" fill="#CADCFD"/>
<path transform="translate(668,341)" d="m0 0 2 1-4 4h122v2h-127l5-5z" fill="#9DBBFD"/>
<path transform="translate(545,634)" d="m0 0h74v4h-23v-3h-51z" fill="#6A8AE0"/>
<path transform="translate(383,413)" d="m0 0h1v8l-1 1-3 21-1 13-3 4-7 1h-38l-6 1 2-3 47-1 3-5 2-20 1-2 1-11z" fill="#CADCFD"/>
<path transform="translate(619,634)" d="m0 0h29v4h-29z" fill="#819FE4"/>
<path transform="translate(1099,253)" d="m0 0 2 1v12l-2 3h-5l-2-2v-7l4-5z" fill="#8FB0FC"/>
<path transform="translate(325,352)" d="m0 0h2v3h5v9l-2 3h-5l-2-2v-10z" fill="#DDE7FC"/>
<path transform="translate(1027,517)" d="m0 0h13l3 1v3h-31l3-3z" fill="#99B9FE"/>
<path transform="translate(627,638)" d="m0 0h13l-2 4-8 6-2 13h-1z" fill="#A4C1FD"/>
<path transform="translate(346,635)" d="m0 0h6l4 2-1 5-5 3-2-1 2-3-4 3-5-1 1-5z" fill="#A7C1FC"/>
<path transform="translate(360,664)" d="m0 0 4 5 3 5v2l2 1-9 3h-3l1-12z" fill="#547AF4"/>
<path transform="translate(346,895)" d="m0 0h6l3 3v7l2 1h-3v-2h-6l-6-3 1-4z" fill="#93B3FD"/>
<path transform="translate(342,621)" d="m0 0h1v5l-3 4 4 5-2 5h-3l-5-5-2-4 8-5z" fill="#567CF4"/>
<path transform="translate(283,414)" d="m0 0h29l3 3h-33z" fill="#99B9FE"/>
<path transform="translate(1056,535)" d="m0 0 6 1 1 3h-24l-7-1v-2z" fill="#99B9FE"/>
<path transform="translate(793,257)" d="m0 0h3l2 6 5 3 2 3h-12l-1-2v-8z" fill="#CADCFD"/>
<path transform="translate(179,914)" d="m0 0 2 4 1 16 2 5 3 18 2 3 3 14-2-1-4-13-2-9-1-1-2-11-1-4z" fill="#B0C9FD"/>
<path transform="translate(387,656)" d="m0 0h7l-6 7-3 3-4-1v-8z" fill="#DCE6FC"/>
<path transform="translate(308,650)" d="m0 0 6 2 2 2-1 4-1 1h-6l-3-3 1-5z" fill="#D6E1FB"/>
<path transform="translate(822,204)" d="m0 0h12l12 5 1 3h-2v-2l-5-1-1-1h-26v-2z" fill="#B1CAFD"/>
<path transform="translate(692,638)" d="m0 0 4 1v17h-4z" fill="#99B9FE"/>
<path transform="translate(915,881)" d="m0 0h6l1 2v9l-4-1-3-3-1-5z" fill="#FDFEFD"/>
<path transform="translate(1050,421)" d="m0 0h21l8 3-1 2-8-1-1-1-7-1h-9l-10 3-4 1 3-3h2v-2z" fill="#020303"/>
<path transform="translate(953,916)" d="m0 0h2l4 15-1 2-1-3h-2l-1-4-8-2v-4l5 1 2 2z" fill="#CADCFD"/>
<path transform="translate(918,632)" d="m0 0 5 1 1 1v5l-2 2-5-1-2-4z" fill="#D8E3FC"/>
<path transform="translate(739,826)" d="m0 0 3 1-8 4-13 4-7 4-7 1v-3l7-1 10-5 8-2z" fill="#CADCFD"/>
<path transform="translate(338,901)" d="m0 0h7l3 2 6 1v2l2 1-4 1-15-4z" fill="#D7E4FD"/>
<path transform="translate(346,645)" d="m0 0 2 1-2 5 1 4 2 4h-5l-3-5 1-5z" fill="#89ABFB"/>
<path transform="translate(323,398)" d="m0 0h16l5 2v1h-21l-3-2z" fill="#99B9FE"/>
<path transform="translate(1095,242)" d="m0 0 4 2 1 7-3-1v3h-5v-5l4-4z" fill="#A2BFFD"/>
<path transform="translate(554,176)" d="m0 0h10v2h2l-1 2-7-2-5 2-3 5-2 7-2 1v-3h2v-7l3-5z" fill="#B4CCFD"/>
<path transform="translate(459,237)" d="m0 0h14v3h-20l4-2z" fill="#020303"/>
<path transform="translate(684,634)" d="m0 0h12v4h-12z" fill="#6D86BE"/>
<path transform="translate(181,835)" d="m0 0h2l-1 7-1 19-2 3 1-26z" fill="#AEC8FD"/>
<path transform="translate(947,640)" d="m0 0 3 1-1 12h-2l-1-2v-7z" fill="#5168A5"/>
<path transform="translate(1066,491)" d="m0 0h8l-1 4-8 2z" fill="#93B3FD"/>
<path transform="translate(190,782)" d="m0 0h1v13l-3 12h-1l1-13 1-2z" fill="#B4CCFD"/>
<path transform="translate(1021,446)" d="m0 0h1l-1 19-2-3v-9z" fill="#80A0F8"/>
<path transform="translate(1063,421)" d="m0 0h8l8 3-1 2-8-1-1-1-7-1z" fill="#4E67AF"/>
<path transform="translate(696,634)" d="m0 0h8v4h-8z" fill="#99B9FE"/>
<path transform="translate(1054,453)" d="m0 0h10v3l-2 1h-6l-2-1z" fill="#020303"/>
<path transform="translate(619,634)" d="m0 0h7l1 4h-8z" fill="#96B6FD"/>
<path transform="translate(1065,769)" d="m0 0 4 1 3 3v3l-4-1-3-3z" fill="#020303"/>
<path transform="translate(795,221)" d="m0 0 2 1-5 17h-2l2-10h2v-6z" fill="#B2CBFD"/>
<path transform="translate(1070,783)" d="m0 0h2l-1 4-3 3h-3l1-4z" fill="#020303"/>
<path transform="translate(1083,769)" d="m0 0h3l-1 4-3 3h-3l2-5z" fill="#020303"/>
<path transform="translate(1079,783)" d="m0 0 5 2 2 2v3l-4-1-3-4z" fill="#020303"/>
<path transform="translate(310,305)" d="m0 0 2 1v2l-7 4-4 2 4-6 5-1z" fill="#6989E5"/>
<path transform="translate(718,1029)" d="m0 0h2l-2 5-8 7-2-1 9-9z" fill="#C7D8FC"/>
<path transform="translate(717,834)" d="m0 0h2l-1 3-9 3-3-1 1-2 7-1z" fill="#C6D9FD"/>
<path transform="translate(197,770)" d="m0 0h3l-1 4-4 3h-2v-4h4z" fill="#547AF4"/>
<path transform="translate(945,650)" d="m0 0 3 3-2 6-4-1 2-1z" fill="#89AAFB"/>
<path transform="translate(945,635)" d="m0 0h4l1 6-3-1-1 4z" fill="#8EAEFB"/>
<path transform="translate(1042,422)" d="m0 0h2v2l-4 2-6 7-2-1 2-3h2l2-4z" fill="#5471C7"/>
<path transform="translate(532,192)" d="m0 0 4 1h10l-2 3h-8z" fill="#AFC9FD"/>
</svg>
