<?xml version="1.0" encoding="UTF-8"?>
<svg version="1.1" viewBox="0 0 1329 1600" width="541" height="651" xmlns="http://www.w3.org/2000/svg">
<path transform="translate(0)" d="m0 0h1329v1600h-1329z" fill="#F3F4F5"/>
<path transform="translate(0)" d="m0 0h1329v1600h-1329zm524 17-20 4-13 5-14 9-12 11-6 7-8 14-5 12-3 11-1 10-1 25-10-13-11-12-13-9-13-6-13-4-8-1h-17l-20 4-15 6-11 7-13 12-9 11-9 12-4 12-5 26-2 16-45 1-11 2-10 5-7 8-3 9-1 187v25l1 130 3 9 5 6 9 6 8 3h30l-2 14-7 75-3 26-4 16-5 10-7 7-12 5-22 7-26 7h-4l-7-13-7-8-1 2 10 26 12 32 24 56 11 25 10 23 13 30 13 29 17 39 19 43 13 30 19 43 18 42 12 27 13 29 9 21 16 35 17 37 14 30 20 41 7 13 4 3v-5l23-11 26-11 8-4 6 1 10 4 13 3 11 1h335l-1 26v62l2 20 4 9 7 7 10 5 12 1h266l9-1 10-6 9-10 3-7 1-45v-187l-1-53-8-13-6-5-10-4-11-2h-25l-13 1v-86l9-3 31-14h23l16-2 21-7 27-13 24-14 10-6 12-11 8-10 5-8 4-12 3-18v-20l-3-17-5-16-8-16-8-12-7-9-10-10-15-10-16-8-14-4h-18l-11 2-20 8-51 20-6 2v-547l-1-224-3-12-6-14-7-11-11-12-9-8-14-8-15-6-13-2z" fill="#F3F4F5"/>
<path transform="translate(524,17)" d="m0 0h519l16 3 16 7 11 7 10 9 10 11 7 12 7 18 1 6 1 231v555l-9 9-7 6-10 13-5 9h-1l-1-19v-775l-1-23-3-12-7-12-6-7-10-7-10-5-14-3h-511l-10 2-13 5-11 9-7 10-4 8-3 14-1 89h21l11 4 8 7 5 8 2 5 1 137v188l-1 18-5 10-5 6-8 5-8 2h-56v16l-1 40v478l1 66v97l2 14 6 18 9 15 11 12 11 9 6 4-1 3-30 13-24 11-2 1v5l-5-5-10-19-21-43-15-33-15-32-13-29-14-32-8-18-15-34-15-35-18-41-15-34-17-39-19-43-18-41-14-32-26-60-15-36-15-41-3-9 6 5 8 14 1 2 8-1 32-9 20-7 6-4 7-8 5-14 3-16 5-50 5-54 1-4h-30l-10-4-10-8-4-8-1-4-1-137v-30l1-175 4-11 8-7 8-4 11-2 45-1 4-27 5-22 3-6 9-12 12-14 13-11 16-8 19-5 7-1h17l12 2 16 6 11 6 11 9 10 11 8 11 1-25 2-13 5-16 8-15 7-9 9-9 13-9 12-6 14-4z" fill="#FC7B96"/>
<path transform="translate(42,717)" d="m0 0 6 1 10 9 7 10 3 7-5 3 1 8 9 25 13 33 18 43 11 25 52 117 19 43 34 78 13 30 14 32 19 43 14 32 15 34 20 45 13 28 16 33 20 38 3 1 6-1 6 22v8l-3 5-7 6-21 10-20 9-39 17-33 15-23 10-36 16-30 13-36 16-19 7-8 2h-13l-10-4-10-8-8-8-8-11-13-22-14-26-15-31-11-24-2-3v-719l36-15z" fill="#3CBAE9"/>
<path transform="translate(776,160)" d="m0 0h15l14 3 16 8 12 11 7 10 6 12 4 18v14l-4 16-2 9v2l4 2 14 8 5-2 12-7 18-6 16-3h14l17 3 12 4 16 8 14 11 8 8 10 14 8 17 5 20 1 7v11l-3 17-4 14-8 16-6 8-9 10-11 10-18 10-9 4v109l2 12 7 14 5 6 11 7 23 7 10 5 9 8 7 11 4 12v17l-4 12-7 10-7 7-14 7-7 2-132 1-3 17-4 13-8 15-11 13-13 9-13 6-12 3h-17l-19-5-13-7-10-9-7-8-8-13-6-18-2-10v-6l-129-1-13-3-8-4-10-8-7-11-4-10-1-5v-13l3-10 6-11 7-8 9-6 15-5 13-4 11-7 7-9 6-12 1-7 1-123 1-29 3-22 4-15 6-16 12-23 8-12 9-11 17-17 16-12 17-10 10-6 3-3-3-10-4-18v-10l3-15 5-12 6-10 9-10 13-9 13-5z" fill="#FCE05F"/>
<path transform="translate(457,576)" d="m0 0h20l1 1v691l3 18 6 14 9 11 11 7 10 4 5 1 340 1v-126l1-17 4-10 9-10 10-5 4-1 199-1v-125l1-27 4 4 8 12 9 10 10 8 1 2v31l-1 86 13-1h25l14 3 10 5 5 6 6 10 1 53v187l-1 45-3 7-9 10-10 6-9 1h-266l-12-1-10-5-7-7-4-9-2-20v-68l1-20h-335l-16-2-16-5-9-4-14-10-11-11-10-15-6-15-3-12-1-9v-103l-1-60v-478l1-40 1-16z" fill="#5CD4FD"/>
<path transform="translate(266,576)" d="m0 0h177v17l-1 40v478l1 66v97l2 14 6 18 9 15 11 12 11 9 6 4-1 3-30 13-24 11-2 1v5l-5-5-10-19-21-43-15-33-15-32-13-29-14-32-8-18-15-34-15-35-18-41-15-34-17-39-19-43-18-41-14-32-26-60-15-36-15-41-3-9 6 5 8 14 1 2 8-1 32-9 20-7 6-4 7-8 5-14 3-16 5-50 5-54 1-4z" fill="#EABCA2"/>
<path transform="translate(266,576)" d="m0 0h177v17l-1 40v478l1 66v97l2 14 6 18 9 15 11 12 11 9 6 4-1 3-30 13-24 11-2 1v5l-5-5-10-19-21-43-15-33-15-32-13-29-14-32-8-18-15-34-15-35-18-41-15-34-17-39-19-43-12-27v-5l2 2 5 9 7 13 1 4 3 1 7 13v2h2l5 8 5 5 2 4 6-1 5 6v2h2l3 5 7 9 8 10 5 5 1 3 6 1 5 6v2l5 1 4 2-1 4 2 1 1 2 1-3 11 5 2 2 3 1h4l-1 7 2 1 1-3 4-2h3v2h10l1 2 3-6 1-7 5-3 1-7 9 2 4-1 1-4 1-7 1-3h2l3-12 2-10 4-19 2-3 1-9 1-1 4-26 1-10v-7l3-14v-21l-2-8-2-4-11-7-10-9-9-13-5-11-4-16v-13l3-14 8-16 11-13 12-10 12-7 1-10 2-5-1-7-4-8 1-3-4-1-4-6-7-6-5-7h-3v-2l-4-2-5-3v-2h-2l-4-5-2-5-3-4 1-5h-3l-4-11h-3l-3-6-6-2-6-4-12-3-7-1-7-2-7-1-7-5-5-3-3-4v-2h-2l-1-5-2-1-5-11v-7l2-6h-20z" fill="#D9A28A"/>
<path transform="translate(524,17)" d="m0 0h519l16 3 16 7 11 7 10 9 10 11 7 12 7 18 1 6 1 231v555l-9 9-7 6-10 13-5 9h-1l-1-19v-775l-1-23-3-12-7-12-6-7-10-7-10-5-14-3h-511l-10 2-13 5-11 9-7 10-4 8-3 14-1 90h-35l-2-2v-60l1-26 2-13 5-16 8-15 7-9 9-9 13-9 12-6 14-4z" fill="#A66BF7"/>
<path transform="translate(1210,829)" d="m0 0h18l14 4 16 8 12 8 10 9 8 9 10 15 8 16 5 16 3 17v20l-4 22-4 10-8 11-11 12-8 6-26 15-23 12-20 8-16 4-10 1h-23l-33 15-6 2-1-31-5-5-11-10-9-12-8-13-5-13-3-14v-23l3-17 5-15 6-10 8-11 9-10 8-7 2-2 1-15 24-9 46-18 11-4z" fill="#EABCA2"/>
<path transform="translate(457,576)" d="m0 0h20l1 1v691l3 18 6 14 9 11 11 7 10 4 5 1 340 1v33h-334l-16-2-16-5-9-4-14-10-11-11-10-15-6-15-3-12-1-9v-103l-1-60v-478l1-40 1-16z" fill="#9A5CEB"/>
<path transform="translate(1204,556)" d="m0 0h26l18 5 18 8 12 8 15 15 10 15 3 6 5 19 1 6v27l-4 16-5 12-9 14-9 11-8 7-12 9-15 8-25 9-51 21-51 23h-1l-1-8v-81l1-121 36-15 24-9 16-4z" fill="#EABCA2"/>
<path transform="translate(1188,292)" d="m0 0h24l20 4 16 6 12 7 13 11 10 14 6 12 4 13 2 10v24l-7 23-7 12-8 12-11 12-12 9-20 12-21 11-23 10-26 12-18 8-17 8h-3l-1-51v-150l1-7 10-4 35-13z" fill="#EABCA2"/>
<path transform="translate(885,1117)" d="m0 0h17l15 2 6 3 7 8 4 11v13l-2 1-42 1-11 4-8 7-6 10-1 4-2 38h-205l-10-3-9-7-3-6-2-16v-40l2-13 5-8 6-5 7-3h97z" fill="#FCE05F"/>
<path transform="translate(913,255)" d="m0 0h14l17 3 12 4 16 8 14 11 8 8 10 14 8 17 5 20 1 7v11l-3 17-4 14-8 16-6 8-9 10-11 10-18 10-11 4-11 3h-28l-16-3-12-4-14-8-11-9-12-12-9-14-1-5 4 5 7 9 2 4h2l7 8 7 6 1-4-1-24-2-5h-10l-4-3v-11l5-1h8l6 2 5 3 4 8 3 10 3 1v2l3-2-2-6v-6l3-13 4-6 3-3 8-3h9v12l-9 2-1 3v7l4 8 6 4v5h25v-67l1-41-21 1-12 12-7 8-7 7-1 3 5 4-1 3-15 4-11 5-8 4-10 7-12 10-2 3h-2l-2 5-1 2h-2l-3-14v-21l5-21 7-16 8-12 11-12 4-2v-2l6-4 13-8 16-6z" fill="#F45C81"/>
<path transform="translate(1090,101)" d="m0 0 3 2 4 22 2 10 2 14 1 4v63l1 19 2 18 1 25v107l-2 16v24l1 1 1 30 1 21v15l1 42 2 7h3l2-4 1-14 5-4 1 44v313l-9 9-7 6-10 13-5 9h-1l-1-19v-720z" fill="#9A5CEB"/>
<path transform="translate(782,666)" d="m0 0h9l15 2 22 1h12l2-1 10 1 7-1 3 3 11-1 11 2 12 2 10 1v1h11v2l5-2 8-1 14 1 24 1 24-3 12 2h6l7-3 5-5-2 5-7 8-8 6-12 5-4 1-132 1-3 17-4 13-8 15-11 13-13 9-13 6-12 3h-17l-19-5-13-7-10-9-7-8-8-13-6-18-2-10v-6l-129-1-13-3-8-4-4-4-1-4 33-2 2 1h62l18-2 4-1h14l20-4 28 2 1-2 2 1 29-3 2-1z" fill="#EBC765"/>
<path transform="translate(451,620)" d="m0 0 5 3 1 4 1 27v70l14 3 3 4 2-1v493l-2 7-5 3-8 2h-9l-1-2v-7l2-4 3 2h7l4-4-3-14-5-12-6-16-5-10v-24l-1-4-1-19-1-88v-123l1-39 1-3-3-2-1-6h1l1-19 2-3v-12h-3l1-28 1-14v-24l2-3-4-1v-29l2-5-1-5v-26l-1-27v-30l5-13z" fill="#A66BF7"/>
<path transform="translate(356,80)" d="m0 0h17l12 2 16 6 11 6 9 7-2 1 1 3v13l2 16 1 28 1 25-4 1h-197v-1l45-1 4-27 5-22 3-6 9-12 12-14 13-11 16-8 19-5z" fill="#EABCA2"/>
<path transform="translate(266,576)" d="m0 0h177v17l-1 40v89l-18 5-11 5h-2v-10l2-5-1-7-4-8 1-3-4-1-4-6-7-6-5-7h-3v-2l-4-2-5-3v-2h-2l-4-5-2-5-3-4 1-5h-3l-4-11h-3l-3-6-6-2-6-4-12-3-7-1-7-2-7-1-7-5-5-3-3-4v-2h-2l-1-5-2-1-5-11v-7l2-6h-20z" fill="#D8A289"/>
<path transform="translate(313,1125)" d="m0 0 3 4 2 7 4 2 2 5 2 1 2 4-1 2h2l5 8 8 10 3 3 7-1 5-4 5-3 5-1h13l7 3-2 1-3-1h-14l-9 4-6 7-4 10 1 10 5 10 8 6 4 1h16l9-3 4-3-1-5 6-2 10-10 6-8 2-1 1-5 8-2-2 4-14 14-10 13 1 8h33l-1-7-2-1-13-1 1-4 7-7 7-8 6-8h1l1 30v67l2 14 6 18 9 15 11 12 11 9 6 4-1 3-30 13-24 11-2 1v5l-5-5-10-19-21-43-15-33-15-32-13-29-14-32-8-18-15-34-2-5z" fill="#C78E7D"/>
<path transform="translate(259,246)" d="m0 0h200l7 6 1 4v33l-3 6-4 3-5 1h-196l-5-3-4-6v-37l5-5z" fill="#F4F5F6"/>
<path transform="translate(600,893)" d="m0 0h375l5 4 4 7v6l-6 7-3 1-103 1h-223l-60-1-5-5-1-2v-7l4-6 4-4z" fill="#5CD2FC"/>
<path transform="translate(959,956)" d="m0 0h16l5 4 4 7v6l-5 6-6 2h-384l-6-7v-7l4-6 5-4z" fill="#5BD3FD"/>
<path transform="translate(1171,565)" d="m0 0 4 1-4 3h-2l-2 4h-2l1 2 2-1-1 3-9 3-2 5-4 5-8 16-6 16-3 12v26l3 12 5 14 6 10 4 4v2h2v2l12 6 8 3 16 3 17 5 12 5 8 6 4 5 11 6-3 3-23 8-19 8-24 10-51 23h-1l-1-8v-81l1-121 36-15z" fill="#C78E7D"/>
<path transform="translate(711,696)" d="m0 0 2 2 5-2h17l15 2 12 5 13 4h13l10-3 16-6 16-2h18l7 2 1 4-4 17-8 17-7 9-6 7-13 9-13 6-12 3h-17l-19-5-13-7-10-9-7-8-8-13-6-18-2-10z" fill="#EBC865"/>
<path transform="translate(649,1018)" d="m0 0h276l5 5 4 7-1 6-4 5-6 2h-283l-5-4-2-4 1-7 6-8z" fill="#5BD3FD"/>
<path transform="translate(437,724)" d="m0 0h4v36l-3 2-1 3v21l2 5h3v27l-1 13h-8l-4-4-3-20-3-27-4-6-6-3-16-1 1 3v7l13 1 2 3 4 40 2 8 4 6 8 4 10 2v23l-21-2-13-4-13-7-10-9-9-13-5-10-4-14v-19l3-12 8-15 8-10h2v-2l11-9 14-8 17-7z" fill="#EABCA2"/>
<path transform="translate(914,299)" d="m0 0h21v104l-1 4h-25l-2-6-4-2-3-4-2-5v-9l5-3h6v-12l-13 2-6 4-4 6-3 13 1 2h-2l2 8 1 3-4 1v-2l-4-1-6-18-5-2-6-2h-13l1 11 3 2 10 1 3 5 1 28-2 1-8-7-6-6v-2h-2l-8-10-4-6h-2l-5-11-1-9 4-7 5-5 11-9 10-7 14-7 16-5 4-1-2-4-3-3 7-8 7-7 7-8z" fill="#FC7B97"/>
<path transform="translate(475,844)" d="m0 0h1l1 15v363l-2-3-2-9-2-19-6-18v-2l-5-1-3-7 1-20v-211l-1-65-2-1 9-3 9-2v-13h2z" fill="#9A5CEB"/>
<path transform="translate(260,492)" d="m0 0h197l6 3 3 4 1 9-4 6-4 3-11 1h-189l-5-3-4-6v-8l4-6z" fill="#F4F5F6"/>
<path transform="translate(260,328)" d="m0 0h198l5 3 3 4 1 8-3 6-3 3-3 1h-201l-5-5-2-3v-9l5-6z" fill="#F4F5F6"/>
<path transform="translate(258,438)" d="m0 0h201l6 5 2 4v7l-4 6-7 3h-198l-6-5-2-4v-8l6-7z" fill="#F4F5F6"/>
<path transform="translate(260,383)" d="m0 0h198l5 3 3 4 1 8-3 6-3 3-3 1h-200l-6-5-2-4v-8l4-5z" fill="#F4F5F6"/>
<path transform="translate(266,576)" d="m0 0h177v17l-1 40-1 16h-1l-1-16-6-3v3l-5-1-4-5-5-3-9-5-5-2-11-4-21-5-19-2-12-1-21-4-6-3v-2l-5-2-2-1v-2h-2l-3-10v-3l-37-1z" fill="#C78E7D"/>
<path transform="translate(1090 1e3)" d="m0 0 4 4 8 12 9 10 10 8 1 2v31l-1 86h-31l-1-1v-125z" fill="#9A5CEB"/>
<path transform="translate(1015,1395)" d="m0 0h105l17 1 6 4 3 5v10l-3 5-6 3-29 1h-94l-9-2-5-5-1-3v-8l4-7 5-3z" fill="#F4F5F6"/>
<path transform="translate(1018,1306)" d="m0 0h93l25 1 6 3 4 5 1 6-2 7-4 4-5 2-37 1h-85l-9-2-5-5-1-3v-8l4-7 5-3z" fill="#F4F5F6"/>
<path transform="translate(1109,1217)" d="m0 0 28 1 6 4 3 4v11l-3 5-6 3-6 1h-120l-7-3-4-4-1-3v-8l4-7 6-3z" fill="#F4F5F6"/>
<path transform="translate(482,78)" d="m0 0h2l-3 10-2 10-1 90h-35l-2-2v-60l1-26 1-10 3-2h8l20-6z" fill="#9A5CEB"/>
<path transform="translate(1153,302)" d="m0 0 3 1-8 5-5 5h-2l-2 8h-2v6h2l1 4 1 15-1 4v13l-2 10-1 12-3 2-10 1v2h-2l2 6 6 2-1-4 3-3 6-1 9 3h5l1-3 1 5-2 2v4l6 2 1-3 1 7-4 1v-2l-17 2-3-3-2 2h-6l-2 1 2 10 4 4h-2v3l-5 1-2-1 1 4 6-2 10-3 3-2 1 3h3v2l4 1v3l-8 2-5 2h-5l-5 1-6-2v2l4 1 2 4-2 3h-2v2h-2l5 10 2 11h3l8 10 2 5v2l6 3 1 3h2l2 7 3 1h10l6-2 4 1-3 3-20 9-28 13h-3l-1-51v-150l1-7 10-4z" fill="#D9A28A"/>
<path transform="translate(924,1380)" d="m0 0h30l9 3 5 5 1 3v38l-3 5-5 4-7 2h-29l-9-3-5-5-1-4v-38l7-8z" fill="#FBDF60"/>
<path transform="translate(926,1291)" d="m0 0h28l9 3 5 5 1 3v38l-3 5-5 4-7 2h-29l-11-4-3-4-1-4v-38l6-7 4-2z" fill="#FBDF60"/>
<path transform="translate(923,1202)" d="m0 0h33l7 3 5 5 1 3v38l-4 6-7 4-6 1h-25l-9-2-7-6-1-4v-37l4-6 6-4z" fill="#FBDF60"/>
<path transform="translate(851,1324)" d="m0 0h11v33h-334l-16-2-3-3 9-1 11 1 5-1 19 1 16-1h13l3 1 2-1h11 3 36l5 1h3l11-1 3 1h3 49 3 63l10-1 2 1 6-1 3-2 7-2v-2h2l1-4 8-5 1-2h2v-4h-2v-2l-6-2v-1z" fill="#8E4FD3"/>
<path transform="translate(914,299)" d="m0 0h21v104l-1 4h-23v-72l-7 4-5 2-10-9-3-3 7-8 7-7 7-8z" fill="#F4F5F6"/>
<path transform="translate(439,917)" d="m0 0h1l1 175 1 19v56l-6-1-25-1 5-8 3-7 3-20-1-12 3-9 1-5v-5l1-3 1-19 1-6v-8l1-11 2-37v-7h1l1-12 1-38 1-22 3-17z" fill="#D19F77"/>
<path transform="translate(410,1324)" d="m0 0 7 1 4 1 11-2h8l9 1 5 1 9-1 11 11 14 10-1 3-30 13-24 11-2 1v5l-5-5-10-19-9-18 2-12z" fill="#D9A28A"/>
<path transform="translate(0,776)" d="m0 0h14l6 16 4 12v5h2l1-7 7-19 3-6 1-1h13l-1 6-16 42-8 16-6 5-3 1h-14l-3-3z" fill="#5DD5FE"/>
<path transform="translate(1171,565)" d="m0 0 4 1-4 3h-2l-2 4h-2l1 2 2-1-1 3-9 3-2 5-4 5-8 16-6 16-3 12v26l3 12 5 14 6 10 4 4v2h2v2l12 6 8 3 16 3 17 5 12 5 8 6 4 5 11 6-3 3-18 6-7-2-9-6-6-3-12-4-8-5-8-4v-2l-4-2-6-4-6-7-2-1v-3h-2l-7-10-7-14-5-16-1-4-1-18v-8l3-17 7-18 1-4h2l1-6 6-12h2l1-4 6-7-2-1z" fill="#D8A189"/>
<path transform="translate(1035,1479)" d="m0 0 49 1h30l26 1h30l4 2v2l-2 1-9 1h-266l-12-1-8-4v-2h134z" fill="#3FBCEB"/>
<path transform="translate(419,102)" d="m0 0 4 1 10 11 8 11 1 3v60l-18-1-1-4-1-26-1-24-2-16z" fill="#C78E7D"/>
<path transform="translate(1295,1554)" d="m0 0h11l8 4 6 8 1 2v13l-4 7 2 4 6 8h-7l-6-6-9 2-10-1-8-6-5-8v-14l6-8 6-4z" fill="#F2F2F2"/>
<path transform="translate(1120,588)" d="m0 0h1l1 8v110l-1 28h-1l-1-18-2-10-3-12-2-1-2-5-5-11v-18l1-1 2-13 3-13 3-7 3-10z" fill="#8C4CCF"/>
<path transform="translate(935,299)" d="m0 0h1l1 47 7 8 5 7 4 12 2 7 1 7v10l-4 8-3 7h-3l-2 2-4 2-1 5h-2v2l-5-1v-3l1-2 4-1v-6l-1-1-25-1v-1h23v-67z" fill="#FC7B97"/>
<path transform="translate(456,756)" d="m0 0 7 2 8 9v5l5-1 1 21v13l-1 5-5-4-8 18-6 7-2-2 1-37z" fill="#9A5CEB"/>
<path transform="translate(744,693)" d="m0 0h100l12 1v5l-9-2h-17l-11 1-13 4-14 5-8 1h-9l-13-4-6-3-12-3-17-1h-11l-4 2-1-5z" fill="#D19F77"/>
<path transform="translate(1174,751)" d="m0 0h10l8 2 23 1-3 2-45 19-37 17h-3l1-6 3-3 12-5 4-4h2v-2l3-3h2v-2h2l2-5h2v-2h2v-2h2v-2z" fill="#D9A28A"/>
<path transform="translate(815,1189)" d="m0 0h2l2 14 3 10 3 1 2-4 4-2 1-3 12-5 9-1 7 1 1-5h1v24h-205v-1l90-1h38l33-1-1-8-2-11z" fill="#EBC865"/>
<path transform="translate(457,576)" d="m0 0h20v39l-6-5-9-4-3-1-3-12-3-8-3-1-5 2-1 8h-1v-17z" fill="#8C4CCF"/>
<path transform="translate(1109,1082)" d="m0 0h3v4h2l3 12 2 24 1 17-1 7v9h-12v-29l1-37z" fill="#A76CF8"/>
<path transform="translate(1169,748)" d="m0 0 10 2v1l-15 5v2h-2v2h-2v2h-2l-2 5h-2v2h-2l-1 3h-2v2h-2l-1 3-12 6-5 3-2 7-5 2v-15l2-7 3-4h3l1 2 3-3 11-9 12-7 6-2z" fill="#D19F77"/>
<path transform="translate(1120,843)" d="m0 0h1l1 15v18l-9 9-7 6-6 8-3-1 2-13 2-18 2-6 7-3 4-4 1-3h2l2-5z" fill="#8C4CCF"/>
<path transform="translate(1295,1554)" d="m0 0h11l8 4 6 8 1 2v13l-4 7 2 4 6 8h-7l-6-6-9 2-10-1-8-6-5-8v-14l6-8 6-4zm0 5-6 4-4 6v10l4 6 3 4 4 1h10l8-7 2-4v-9l-5-8-7-3z" fill="#8F59C7"/>
<path transform="translate(440,1123)" d="m0 0h1l1 13v31l-6-1-18-1-1-4 5-9 6-16 2-7 2-1 1 2 2 1v4l3-4z" fill="#C78E7C"/>
<path transform="translate(399,615)" d="m0 0 6 1 5 2 9 5 8 6 3 3 3 1v-3l4 1 3 2v34h-4l-1-8-3-1-3-9h-2v-2l-2-1-4-6-4-2-4-8v-2l-3-1-4-6-6-3z" fill="#D19F77"/>
<path transform="translate(438,722)" d="m0 0h4v69l-2 2-3-3-1-4v-21l2-4 2-1 1-36-18 5-19 9-11 8-4 4h-2v2h-2l-2 4-8 11-6 13-2 9v19l4 14 6 12 10 13 10 8 15 7 16 4v1h-7l-17-5-12-8-10-9-9-13-5-11-4-16v-13l3-14 8-16 11-13 12-10 12-7 20-8z" fill="#CF9783"/>
<path transform="translate(0,785)" d="m0 0 3 4 9 21 6 17-1 5-3 3-11 1-2 5h-1z" fill="#3CBAE9"/>
<path transform="translate(419,102)" d="m0 0 4 1 5 6h-2l3 6-1 7v18l2 37 1 10h-7l-1-4-1-26-1-24-2-16z" fill="#D9A28A"/>
<path transform="translate(1197,832)" d="m0 0 4 1-6 3-6 5-8 3-14 5-15 8-19 12-10 7h-1v-15l24-9 46-18z" fill="#C8907E"/>
<path transform="translate(948,457)" d="m0 0h1l1 99 2 12 7 14 5 6 11 7 23 7 2 2-7-1-10-2-3 1h-16l-13-1-10-1 1-4 13-4 4-3-1-5-6-10-4-13z" fill="#EAC373"/>
<path transform="translate(299,573)" d="m0 0h12v2l5-2h116l4 1h54l2 2-15 1h-34l-166-1v-1l22-1z" fill="#F55B81"/>
<path transform="translate(294,1082)" d="m0 0h2v2h2l6 14 2 3v3h2l6 11 15 29v3h2l3 6 7 6 4 6 6 1h6l-5 5-9 1 1-2-5-5-6-7-2-2-2-6h-2l-2-6-5-7-3-3-3-7h-2l-16-37-2-5z" fill="#D19E79"/>
<path transform="translate(1171,565)" d="m0 0 4 1-4 3h-2l-2 4h-2l1 2 2-1-1 3-9 3-2 5-4 5-8 16-6 16-3 12-1 30v5l-2-4-1-18v-8l3-17 7-18 1-4h2l1-6 6-12h2l1-4 6-7-2-1z" fill="#D7A186"/>
<path transform="translate(1033,45)" d="m0 0 1 2 6-2 5 1 14 4 10 6 10 9 5 6 3 6v7h-2l-7-12-6-7-10-7-10-5-14-3-5-1-27-1v-1l23-1z" fill="#9B5DEC"/>
<path transform="translate(925,417)" d="m0 0 3 1-1 8-3 1-1 5v4l8 3 2 1 7-1-1 2-11 3v1l-7 2h-12l-1-3 1-2h2v-2l4-4 2-1v-3h2l-1-2v-7l3-5z" fill="#FC7996"/>
<path transform="translate(990,375)" d="m0 0 7 2h5l1 4 5 5v2l3-1-3 9-5 9-5-3-4-11-3-11z" fill="#FB7C96"/>
<path transform="translate(605,586)" d="m0 0 1 2-1 2h2v2l10 3 4 3-10 2h-8l-14 3-9-2-8 1 3-2 15-4 10-6z" fill="#EAC669"/>
<path transform="translate(821,1215)" d="m0 0 1 2h40v2h-205v-1l90-1h73z" fill="#EBC766"/>
<path transform="translate(1186,753)" d="m0 0 29 1-3 2-19 8-6 2-2-1v-2h-2l-1-5z" fill="#EABBA1"/>
<path transform="translate(1121,1036)" d="m0 0 15 7 18 6v2h5v2l-9-1-12-3-10 1-4 4-2 3z" fill="#D8A189"/>
<path transform="translate(1168,723)" d="m0 0 6 2 9 5 12 4 8 3 14 8 9 4-1 2-5 1-7-3-10-7-15-5-8-5-8-4v-2l-4-2z" fill="#D19F77"/>
<path transform="translate(440,723)" d="m0 0h2v68l-2 2-3-3-1-4v-21l2-4 2-1z" fill="#D8A189"/>
<path transform="translate(140,723)" d="m0 0 6 5 8 14 1 2 13-1-3 2-9 3-3 3h-3l-10-26z" fill="#DBA58D"/>
<path transform="translate(879,424)" d="m0 0h4l1 5 10 5-1 4-3 4-9-3-3-3z" fill="#FD7A97"/>
<path transform="translate(1299,1566)" d="m0 0h3l4 6 3 3-3 3h-3l-1 4h-4l-1-4-4-1-1-4 4-2z" fill="#8B51CD"/>
<path transform="translate(1090 1e3)" d="m0 0 4 4 8 12 6 8h-7l-4-10h-4l-2 11h-1z" fill="#8E4FD3"/>
<path transform="translate(427,113)" d="m0 0 2 4-1 5v18l2 37 1 10-4-1-1-23v-18l-1-21z" fill="#D19F77"/>
<path transform="translate(438,722)" d="m0 0 4 1-21 7-17 8-11 8-4 4h-2v2h-2l-2 4-8 11h-2l2-5 11-13 12-10 12-7 20-8z" fill="#CC9380"/>
<path transform="translate(1090,1029)" d="m0 0 2 1 1 3v38l-2 6h-1z" fill="#8C4CCF"/>
<path transform="translate(1046,1155)" d="m0 0h32v1l-11 1h-19l-3 10-12 35-3 7-1-3 15-43z" fill="#3CBAE9"/>
<path transform="translate(913,255)" d="m0 0h14l13 2v1h-7l-4-1-1 3-7 1-13-1-1-2h-6v-1z" fill="#F88799"/>
<path transform="translate(821,1215)" d="m0 0 1 2h40v2h-97v-1l55-1z" fill="#CA947A"/>
<path transform="translate(1121,1036)" d="m0 0 15 7 18 6v2h5v2l-9-1-10-3-16-8-3-3z" fill="#CB9380"/>
<path transform="translate(506,38)" d="m0 0 2 4-1 7 3 2 3-2h7v2l-16 6-3 1 4-16z" fill="#9C5EED"/>
<path transform="translate(1197,832)" d="m0 0 4 1-6 3-6 5-8 3-9 2 3-3 2-1-1-2z" fill="#D9A28A"/>
<path transform="translate(363,1193)" d="m0 0h10l3 2h-5v4l10 2 1 2-2 1h-8l-8-7z" fill="#C78E7C"/>
<path transform="translate(1006,1155)" d="m0 0h25l-2 4-1-2-20-1 7 23 3 11 1 1v5l-2 1-8-31z" fill="#3CBAE9"/>
<path transform="translate(517,18)" d="m0 0h33l-3 3-7-1h-14l-14 1v2l-5-1v-2z" fill="#9A5CEB"/>
<path transform="translate(438,761)" d="m0 0h3v19l-1-3-3 1-1-3v-10z" fill="#D29F79"/>
<path transform="translate(1012,323)" d="m0 0 2 4 4 20v11l-1 8h-1l-2-29-2-9z" fill="#F78D99"/>
<path transform="translate(140,723)" d="m0 0 6 5 5 8v2l-2 1-2 4-7-18z" fill="#EBBDA3"/>
<path transform="translate(390,851)" d="m0 0 4 2 15 8 11 3 8 2v1h-7l-17-5-12-8z" fill="#CC9380"/>
<path transform="translate(383,1222)" d="m0 0 3 1 1 6-6 4-3-2-1-4h2l2-4z" fill="#D19F77"/>
<path transform="translate(1133,638)" d="m0 0h1v31l-2-4-1-18v-8z" fill="#D5A081"/>
<path transform="translate(1158,1049)" d="m0 0h15l12 1-1 2h-25l-5-1z" fill="#D9A28A"/>
<path transform="translate(1299,1566)" d="m0 0h3l4 6 3 3-3 3-3-1-2-6h-4z" fill="#9D5FBA"/>
<path transform="translate(410,1324)" d="m0 0 7 1 1 3h-4l-5 8-2-1 2-10z" fill="#D19F77"/>
<path transform="translate(1163,568)" d="m0 0 4 1-5 5h-2l-2 4-5 4 1-4 6-7-2-1z" fill="#D19F79"/>
<path transform="translate(1290,1588)" d="m0 0 5 2 7 4-4 2-7-2-2-4z" fill="#4BACE2"/>
<path transform="translate(1160,380)" d="m0 0h1v6l-5 4-3-1 1-5 6-2z" fill="#D9A28A"/>
<path transform="translate(1175,411)" d="m0 0 3 3 3 6 3 4-6-1-3-5z" fill="#DAA38B"/>
<path transform="translate(370,1176)" d="m0 0h8l4 5 1 3h-2l-3-5-7-1-5 6h-2l1-4z" fill="#C78E7D"/>
<path transform="translate(1176,398)" d="m0 0 5 2-2 5-2 1-2 3-1-9z" fill="#D9A28A"/>
<path transform="translate(1298,1570)" d="m0 0 4 1 1 1v5l-6-1-1-5z" fill="#3CBAE9"/>
<path transform="translate(419,1175)" d="m0 0 2 1-4 8-4 3 3-11z" fill="#D19F77"/>
<path transform="translate(1126,1176)" d="m0 0 5 1 3 3-1 2-4-3-5 1-6 5 1-4 4-4z" fill="#3CBAE9"/>
<path transform="translate(429,1365)" d="m0 0 4 2v2l-5 2 1 4-2 1-3-5 1-2h3z" fill="#E9BAA0"/>
<path transform="translate(397,770)" d="m0 0h16l7 4v3l-9-5-14-1z" fill="#CB9280"/>
<path transform="translate(502,571)" d="m0 0h6l1 3-2 1h-12l3-2z" fill="#F46585"/>
<path transform="translate(552,32)" d="m0 0 3 3 3 8-1 4-2-2-1-5-2-2-1-5z" fill="#9A5CEB"/>
<path transform="translate(517,18)" d="m0 0h5l-3 3h-7v2l-5-1v-2z" fill="#9D60EE"/>
<path transform="translate(429,1324)" d="m0 0h3v2l-9 3-4-1v-2l6-1z" fill="#D19F77"/>
<path transform="translate(1145,599)" d="m0 0 1 2-3 7-4 3 1-5 2-6z" fill="#D6A083"/>
<path transform="translate(1172,1049)" d="m0 0 13 1-1 2h-13z" fill="#E1AE95"/>
<path transform="translate(1174,841)" d="m0 0 4 1-5 3-1 2-7 2 3-3h2l1-4z" fill="#CE987E"/>
<path transform="translate(1293,1572)" d="m0 0h3l3 6h-5l-2-2z" fill="#9A6ABA"/>
<path transform="translate(1070,1175)" d="m0 0h5l-4 2-3 3h-2l-2 4-1-3 5-5z" fill="#3CBAE9"/>
<path transform="translate(569,602)" d="m0 0 3 1-13 7-2-1 7-5z" fill="#E4BB77"/>
<path transform="translate(1017,347)" d="m0 0h1v11l-1 8h-1l-1-14z" fill="#F29E9C"/>
<path transform="translate(564,18)" d="m0 0h9l-5 6-3-3z" fill="#9A5CEB"/>
</svg>
